{"title":"Ghar Jawayiaan Da","uid":7427845,"size":729042124,"categoryP":"video","categoryS":"movies","magnet":"?xt=urn:btih:4c6f6ae2cd0c73d801e68c4a6654087c9956ea5a&amp;dn=Ghar+Jawayiaan+Da&amp;tr=udp%3A%2F%2Ftracker.openbittorrent.com%3A80&amp;tr=udp%3A%2F%2Fopen.demonii.com%3A1337&amp;tr=udp%3A%2F%2Ftracker.coppersurfer.tk%3A6969&amp;tr=udp%3A%2F%2Fexodus.desync.com%3A6969","seeders":0,"leechers":0,"uploader":"djsunny1986","files":2,"time":1341856578,"description":"Ghar Jawaiyaan Da\nPunjabi Funny Movie (Jaswinder Bhalla)\n\nFormat                                   : AVI\nFormat/Info                              : Audio Video Interleave\nFile size                                : 695 MiB\nDuration                                 : 1h 43mn\nOverall bit rate                         : 939 Kbps\nWriting library                          : VirtualDub build 32706/release\n\nVideo\nID                                       : 0\nFormat                                   : MPEG-4 Visual\nFormat profile                           : Advanced Simple@L5\nFormat settings, BVOP                    : 2\nFormat settings, QPel                    : No\nFormat settings, GMC                     : No warppoints\nFormat settings, Matrix                  : Default (H.263)\nCodec ID                                 : XVID\nCodec ID/Hint                            : XviD\nDuration                                 : 1h 43mn\nBit rate                                 : 799 Kbps\nWidth                                    : 672 pixels\nHeight                                   : 448 pixels\nDisplay aspect ratio                     : 1.375\nFrame rate                               : 29.970 fps\nColor space                              : YUV\nChroma subsampling                       : 4:2:0\nBit depth                                : 8 bits\nScan type                                : Progressive\nCompression mode                         : Lossy\nBits/(Pixel*Frame)                       : 0.089\nStream size                              : 592 MiB (85%)\n\nAudio\nID                                       : 1\nFormat                                   : MPEG Audio\nFormat version                           : Version 1\nFormat profile                           : Layer 3\nCodec ID                                 : 55\nCodec ID/Hint                            : MP3\nDuration                                 : 1h 43mn\nBit rate mode                            : Constant\nBit rate                                 : 128 Kbps\nChannel(s)                               : 2 channels\nSampling rate                            : 44.1 KHz\nCompression mode                         : Lossy\nDelay relative to video                  : 26ms\nStream size                              : 94.7 MiB (14%)\n\nScreens:\n &lt;a href=&quot;\nhttp://i.minus.com/ixLOnTutlJjF8.jpg&quot; rel=&quot;nofollow&quot; target=&quot;_NEW&quot;&gt;\nhttp://i.minus.com/ixLOnTutlJjF8.jpg&lt;/a&gt; &lt;a href=&quot;\nhttp://i.minus.com/ie8cfKLq2gMDj.jpg&quot; rel=&quot;nofollow&quot; target=&quot;_NEW&quot;&gt;\nhttp://i.minus.com/ie8cfKLq2gMDj.jpg&lt;/a&gt; &lt;a href=&quot;\nhttp://i.minus.com/i8vergiWhPUr9.jpg&quot; rel=&quot;nofollow&quot; target=&quot;_NEW&quot;&gt;\nhttp://i.minus.com/i8vergiWhPUr9.jpg&lt;/a&gt; &lt;a href=&quot;\nhttp://i.minus.com/ih2cQYm16hrRg.jpg&quot; rel=&quot;nofollow&quot; target=&quot;_NEW&quot;&gt;\nhttp://i.minus.com/ih2cQYm16hrRg.jpg&lt;/a&gt; &lt;a href=&quot;\nhttp://i.minus.com/ibkGV8ZJEDspVr.jpg&quot; rel=&quot;nofollow&quot; target=&quot;_NEW&quot;&gt;\nhttp://i.minus.com/ibkGV8ZJEDspVr.jpg&lt;/a&gt;\n","torrent":{"xt":"urn:btih:4c6f6ae2cd0c73d801e68c4a6654087c9956ea5a","amp;dn":"Ghar+Jawayiaan+Da","amp;tr":["udp%3A%2F%2Ftracker.openbittorrent.com%3A80","udp%3A%2F%2Fopen.demonii.com%3A1337","udp%3A%2F%2Ftracker.coppersurfer.tk%3A6969","udp%3A%2F%2Fexodus.desync.com%3A6969"],"infoHash":"4c6f6ae2cd0c73d801e68c4a6654087c9956ea5a","infoHashBuffer":{"type":"Buffer","data":[76,111,106,226,205,12,115,216,1,230,140,74,102,84,8,124,153,86,234,90]},"announce":[],"urlList":[]}}